<svg width="20" height="20" viewBox="0 0 20 20" fill="none" xmlns="http://www.w3.org/2000/svg">
<path d="M9.99988 0C15.5227 0 19.9999 4.47715 19.9999 10C19.9999 15.5228 15.5227 20 9.99988 20C4.47703 20 -0.00012207 15.5228 -0.00012207 10C-0.00012207 4.47715 4.47703 0 9.99988 0Z" fill="#F0F0F0"/>
<path d="M2.06706 16.0881C1.28155 15.0661 0.689243 13.8882 0.34436 12.6086H5.54663L2.06706 16.0881Z" fill="#0052B4"/>
<path d="M19.6554 12.6086C19.3106 13.8882 18.7182 15.0661 17.9327 16.0881L14.4532 12.6086H19.6554Z" fill="#0052B4"/>
<path d="M0.34436 7.39136C0.689282 6.11175 1.28159 4.93382 2.06706 3.91186L5.54651 7.39136H0.34436Z" fill="#0052B4"/>
<path d="M16.0881 17.9328C15.0661 18.7183 13.8882 19.3106 12.6085 19.6555V14.4533L16.0881 17.9328Z" fill="#0052B4"/>
<path d="M3.91162 2.06718C4.93361 1.28167 6.11154 0.689365 7.39115 0.344443V5.54663L3.91162 2.06718Z" fill="#0052B4"/>
<path d="M7.39111 19.6555C6.1115 19.3106 4.93357 18.7183 3.91162 17.9328L7.39111 14.4533V19.6555Z" fill="#0052B4"/>
<path d="M12.6085 0.344443C13.8881 0.689365 15.0661 1.28167 16.088 2.06714L12.6085 5.54663V0.344443Z" fill="#0052B4"/>
<path d="M14.4532 7.39136L17.9327 3.91183C18.7182 4.93378 19.3106 6.11175 19.6554 7.39136H14.4532Z" fill="#0052B4"/>
<path d="M19.9152 11.3043H11.3043H11.3043V19.9154C10.8773 19.9709 10.4419 20 9.99988 20C9.55773 20 9.12249 19.9709 8.69554 19.9154V11.3044V11.3044H0.0845264C0.0289404 10.8774 -0.00012207 10.4421 -0.00012207 10C-0.00012207 9.55785 0.0289404 9.12262 0.0845264 8.69566H8.69546H8.6955V0.0846481C9.1225 0.0290623 9.55773 0 9.99988 0C10.4419 0 10.8773 0.0290222 11.3042 0.0846481V8.69559V8.69563H19.9152C19.9708 9.12262 19.9999 9.55785 19.9999 10C19.9999 10.4421 19.9708 10.8774 19.9152 11.3043Z" fill="#D80027"/>
<path d="M12.6086 7.39132L17.071 2.92897C17.2762 3.13413 17.472 3.34862 17.6588 3.57097L13.8384 7.39136H12.6086V7.39132Z" fill="#D80027"/>
<path d="M7.39122 7.39136H7.39114L2.92883 2.92905C3.13399 2.72382 3.34848 2.52804 3.57083 2.34124L7.39122 6.16171V7.39136Z" fill="#D80027"/>
<path d="M7.39122 12.6086V12.6087L2.92888 17.071C2.72364 16.8659 2.52786 16.6514 2.34106 16.4291L6.16149 12.6086H7.39122V12.6086Z" fill="#D80027"/>
<path d="M12.6086 12.6087L17.071 17.0712C16.8659 17.2764 16.6514 17.4722 16.429 17.6589L12.6086 13.8385V12.6087Z" fill="#D80027"/>
</svg>
